<svg xmlns="http://www.w3.org/2000/svg" width="30" height="34" fill="none" viewBox="0 0 30 34">
    <path fill="#E70000"
        d="M21.667.333H8.333C2.5.333 0 3.667 0 8.667v16.666c0 5 2.5 8.334 8.333 8.334h13.334c5.833 0 8.333-3.334 8.333-8.334V8.667c0-5-2.5-8.334-8.333-8.334zM8.333 17.417H15c.683 0 1.25.566 1.25 1.25a1.26 1.26 0 01-1.25 1.25H8.333a1.26 1.26 0 01-1.25-1.25c0-.684.567-1.25 1.25-1.25zm13.334 9.166H8.333a1.26 1.26 0 01-1.25-1.25c0-.683.567-1.25 1.25-1.25h13.334c.683 0 1.25.567 1.25 1.25a1.26 1.26 0 01-1.25 1.25zm4.166-14.166H22.5a4.58 4.58 0 01-4.583-4.584V4.5c0-.683.566-1.25 1.25-1.25.683 0 1.25.567 1.25 1.25v3.333c0 1.15.933 2.084 2.083 2.084h3.333c.684 0 1.25.566 1.25 1.25a1.26 1.26 0 01-1.25 1.25z"></path>
</svg>