<svg xmlns="http://www.w3.org/2000/svg" width="40" height="40" fill="none" viewBox="0 0 40 40"><path fill="#fff" d="M36.25 13.333a1.26 1.26 0 01-1.25 1.25H5a1.26 1.26 0 01-1.25-1.25c0-.683.567-1.25 1.25-1.25h1.7l.633-3.016c.6-2.917 1.85-5.6 6.817-5.6h11.7c4.967 0 6.217 2.683 6.817 5.6l.633 3.016H35c.683 0 1.25.567 1.25 1.25zM36.967 22.767c-.25-2.75-.983-5.684-6.333-5.684H9.367c-5.35 0-6.067 2.934-6.333 5.684L2.1 32.917A4.548 4.548 0 003.267 36.4a4.677 4.677 0 003.467 1.517h3.133c2.7 0 3.217-1.55 3.55-2.567l.333-1c.384-1.15.484-1.433 1.984-1.433h8.533c1.5 0 1.55.166 1.983 1.433l.334 1c.333 1.017.85 2.567 3.55 2.567h3.133c1.317 0 2.583-.55 3.467-1.517a4.548 4.548 0 001.166-3.483l-.933-10.15zM15 26.25h-5A1.26 1.26 0 018.75 25c0-.683.567-1.25 1.25-1.25h5c.684 0 1.25.567 1.25 1.25A1.26 1.26 0 0115 26.25zm15 0h-5A1.26 1.26 0 0123.75 25c0-.683.567-1.25 1.25-1.25h5c.684 0 1.25.567 1.25 1.25A1.26 1.26 0 0130 26.25z"></path></svg>